<?xml version="1.0" standalone="no"?>
<!DOCTYPE svg PUBLIC "-//W3C//DTD SVG 20010904//EN"
 "http://www.w3.org/TR/2001/REC-SVG-20010904/DTD/svg10.dtd">
<svg version="1.0" xmlns="http://www.w3.org/2000/svg"
 width="1000.000000pt" height="1000.000000pt" viewBox="0 0 1000.000000 1000.000000"
 preserveAspectRatio="xMidYMid meet">
<metadata>
Created by potrace 1.11, written by Peter Selinger 2001-2013
</metadata>
<g transform="translate(0.000000,1000.000000) scale(0.100000,-0.100000)"
fill="#000000" stroke="none">
<path d="M6455 8447 c-22 -12 -56 -32 -75 -44 -19 -12 -39 -23 -45 -23 -5 -1
-18 -9 -27 -17 -10 -9 -18 -13 -18 -8 0 4 -6 3 -12 -3 -7 -5 -56 -33 -108 -62
-120 -67 -126 -71 -175 -101 -22 -13 -42 -24 -45 -25 -17 -2 -60 -29 -60 -37
0 -6 -3 -8 -6 -5 -3 4 -36 -11 -74 -33 -124 -70 -134 -76 -197 -113 -34 -20
-66 -36 -71 -36 -5 0 -15 -7 -22 -15 -7 -9 -15 -13 -18 -11 -2 3 -22 -6 -43
-20 -21 -13 -41 -24 -43 -24 -2 0 -49 -27 -104 -59 -55 -33 -103 -57 -106 -53
-3 3 -6 1 -6 -5 0 -5 -19 -18 -42 -29 -24 -10 -74 -37 -113 -59 -38 -23 -77
-44 -85 -48 -8 -4 -28 -16 -45 -27 -16 -11 -57 -34 -90 -51 -33 -17 -63 -36
-66 -41 -3 -5 -8 -9 -10 -7 -8 4 -49 -13 -49 -21 0 -4 -9 -10 -20 -13 -11 -3
-71 -35 -134 -72 -63 -37 -118 -66 -122 -65 -4 1 -10 -2 -13 -7 -3 -5 -28 -21
-56 -34 -78 -39 -188 -101 -205 -114 -8 -7 -62 -37 -120 -68 -58 -30 -134 -71
-168 -91 -35 -20 -67 -36 -70 -36 -3 0 -13 -6 -21 -14 -9 -8 -52 -33 -96 -56
-44 -23 -83 -48 -87 -54 -4 -6 -8 -7 -8 -3 0 5 -19 -2 -42 -16 -24 -14 -60
-34 -80 -45 -20 -12 -54 -32 -75 -45 -21 -13 -67 -38 -103 -56 -85 -43 -153
-81 -275 -154 -55 -32 -100 -58 -100 -56 0 5 -60 -36 -67 -46 -19 -26 -7 -65
31 -102 43 -41 161 -149 201 -183 35 -29 140 -125 204 -185 55 -52 107 -99
220 -200 38 -33 89 -80 114 -103 26 -24 73 -67 106 -95 32 -29 75 -68 96 -87
36 -34 167 -153 221 -201 15 -13 62 -55 105 -94 43 -38 98 -90 123 -114 25
-24 56 -50 69 -58 12 -9 22 -19 22 -23 0 -4 -24 -19 -52 -34 -68 -35 -86 -46
-125 -73 -17 -13 -33 -23 -36 -23 -3 0 -33 -18 -66 -40 -33 -22 -62 -40 -65
-40 -10 0 -132 -74 -153 -94 -13 -11 -23 -15 -23 -10 0 5 -7 0 -15 -10 -8 -11
-15 -17 -15 -13 0 4 -19 -6 -42 -23 -22 -16 -44 -30 -49 -30 -10 0 -168 -97
-191 -118 -10 -8 -18 -12 -18 -8 0 4 -10 -2 -22 -14 -12 -11 -26 -20 -31 -20
-5 0 -47 -24 -94 -52 -47 -29 -92 -57 -102 -63 -9 -5 -31 -20 -48 -32 -17 -13
-34 -23 -37 -23 -7 0 -210 -122 -216 -130 -3 -4 -32 -22 -65 -40 -93 -51 -98
-54 -130 -75 -16 -11 -33 -24 -37 -30 -4 -5 -8 -6 -8 -1 0 5 -9 1 -20 -9 -20
-18 -51 -38 -80 -51 -15 -7 -162 -96 -209 -126 -14 -10 -44 -28 -66 -40 -22
-12 -48 -27 -57 -33 -9 -5 -43 -25 -75 -44 -32 -18 -60 -37 -63 -40 -7 -9 -93
-60 -153 -91 -26 -14 -56 -32 -65 -40 -9 -8 -28 -21 -42 -28 -42 -22 -69 -38
-87 -54 -10 -8 -38 -25 -62 -37 -24 -12 -68 -37 -97 -56 -30 -19 -57 -35 -62
-36 -4 0 -16 -9 -27 -19 -11 -10 -43 -31 -71 -47 -137 -76 -174 -98 -174 -105
0 -5 -5 -8 -12 -8 -6 0 -19 -6 -27 -14 -9 -7 -47 -31 -86 -51 -38 -21 -106
-62 -150 -90 -44 -29 -84 -52 -89 -53 -5 0 -12 -4 -15 -9 -3 -5 -44 -30 -91
-57 -47 -27 -88 -54 -92 -60 -4 -6 -8 -7 -8 -3 0 5 -13 -2 -29 -16 -16 -13
-49 -34 -73 -46 -50 -25 -50 -26 -180 -108 -54 -35 -102 -63 -108 -63 -14 0
-30 -35 -30 -65 0 -20 8 -29 32 -40 19 -7 39 -10 48 -5 8 4 31 10 50 13 19 3
44 8 55 10 11 3 40 8 65 13 25 4 47 8 50 9 3 0 27 4 53 9 27 4 59 10 70 12 12
3 36 7 52 10 17 3 47 10 68 15 21 6 50 12 65 14 15 2 38 7 52 10 14 3 40 8 59
11 19 2 37 7 41 9 4 3 29 7 55 10 27 4 56 10 65 15 10 5 19 7 22 5 2 -2 20 0
39 5 19 5 50 11 69 14 19 3 68 12 107 20 40 9 87 18 105 21 18 3 62 12 98 20
98 20 171 34 210 40 19 3 55 10 80 15 25 5 56 12 70 14 31 6 66 14 105 23 17
4 32 7 35 8 3 1 25 5 50 9 25 5 54 10 65 13 11 2 31 6 45 9 105 20 134 25 200
39 41 8 91 17 110 20 19 3 64 11 100 19 75 16 160 33 210 41 19 4 55 11 80 16
25 6 56 12 70 14 37 6 80 14 130 25 25 5 56 12 70 14 14 3 36 8 50 11 14 3 39
8 55 11 17 3 46 9 65 14 19 5 55 12 80 15 25 3 61 10 80 15 19 5 52 11 73 14
22 4 69 13 105 21 70 15 107 23 157 31 17 3 46 9 65 14 20 5 53 12 74 14 21 3
46 8 55 10 9 3 36 8 61 11 25 3 62 11 83 16 21 6 50 12 65 14 15 2 38 7 52 10
33 8 60 14 90 20 14 2 36 7 50 10 49 9 85 16 114 20 15 2 36 7 46 10 10 3 35
8 55 10 21 3 65 12 99 19 34 8 78 17 98 20 21 3 57 11 80 16 24 6 59 13 78 16
19 3 55 9 80 14 25 6 63 13 85 16 22 3 44 8 48 11 4 2 20 6 35 8 76 11 109 18
232 45 47 10 101 21 120 25 39 6 114 20 210 40 36 8 83 16 105 20 22 3 69 12
105 21 36 8 76 17 90 19 14 2 36 7 50 10 14 3 34 7 45 9 11 2 35 6 53 10 19 5
43 9 55 11 12 1 72 12 132 23 61 12 122 23 137 26 15 3 31 7 36 9 4 3 28 8 52
12 25 3 61 10 80 15 19 5 49 11 65 14 17 3 39 7 50 9 11 3 40 8 65 12 69 11
80 13 155 29 39 9 81 18 95 20 14 3 35 7 48 10 43 11 131 28 157 31 12 1 91
15 120 22 11 2 31 6 45 9 14 2 39 7 55 11 17 3 39 7 50 9 29 4 74 14 120 25
22 5 51 12 65 15 25 4 51 10 100 19 14 3 61 12 105 20 44 7 103 19 130 25 28
6 61 13 75 15 27 4 40 7 145 29 39 9 81 18 95 20 14 3 34 7 45 9 43 10 105 19
107 16 2 -2 17 5 35 16 56 33 50 61 -24 129 -24 23 -66 61 -92 86 -27 25 -95
88 -151 140 -57 52 -118 109 -136 125 -18 17 -64 59 -103 95 -39 36 -95 88
-125 115 -74 70 -255 236 -279 258 -11 9 -25 17 -30 17 -6 0 -8 3 -5 6 3 3
-15 24 -40 47 -25 23 -54 50 -64 60 -10 9 -23 17 -29 17 -5 0 -7 5 -4 10 3 6
2 10 -3 10 -4 0 -31 21 -59 48 -81 75 -379 351 -429 397 -125 114 -182 166
-225 208 -27 26 -51 47 -53 47 -2 0 -19 15 -38 34 l-33 33 65 13 c36 6 76 14
90 16 14 3 63 14 110 24 85 20 123 27 170 35 29 4 235 45 265 51 11 3 29 6 40
8 11 2 34 6 50 9 39 9 83 17 120 23 17 3 47 10 68 15 21 6 50 12 65 14 15 2
38 7 52 10 14 3 39 8 55 11 17 3 37 7 45 10 8 3 29 8 45 11 17 2 40 6 53 9 12
2 34 6 50 9 72 14 145 29 227 45 83 17 139 28 190 36 11 1 31 5 45 8 192 41
210 49 210 95 0 18 -14 39 -43 66 -73 68 -118 105 -129 105 -5 0 -7 4 -3 9 3
5 -4 12 -15 16 -11 3 -20 10 -20 15 0 5 -9 12 -21 15 -11 4 -18 9 -15 12 3 4
-7 16 -23 27 -16 12 -51 41 -78 66 -28 25 -67 59 -87 75 -21 17 -53 45 -72 63
-20 17 -40 32 -45 32 -6 0 -7 5 -4 10 3 6 2 10 -4 10 -5 0 -33 21 -62 48 -60
55 -74 67 -124 107 -33 27 -62 52 -135 118 -14 12 -59 51 -100 87 -41 35 -83
71 -92 80 -10 8 -33 29 -53 45 -20 17 -50 44 -69 60 -18 17 -57 50 -86 75 -29
25 -68 59 -87 75 -18 17 -49 44 -68 60 -20 17 -50 44 -69 60 -18 17 -55 49
-82 72 -27 23 -62 53 -79 68 -16 14 -43 36 -58 48 -15 12 -47 39 -70 61 -50
46 -142 127 -177 155 -45 38 -89 75 -123 106 -242 216 -237 213 -312 172z"/>
</g>
</svg>
